<mxfile host="app.diagrams.net" agent="Mozilla/5.0 (Windows NT 10.0; Win64; x64) AppleWebKit/537.36 (KHTML, like Gecko) Chrome/132.0.0.0 Safari/537.36" version="26.0.10">
  <diagram id="C5RBs43oDa-KdzZeNtuy" name="Page-1">
    <mxGraphModel dx="2363" dy="623" grid="1" gridSize="10" guides="1" tooltips="1" connect="1" arrows="1" fold="1" page="1" pageScale="1" pageWidth="827" pageHeight="1169" math="0" shadow="0">
      <root>
        <mxCell id="WIyWlLk6GJQsqaUBKTNV-0" />
        <mxCell id="WIyWlLk6GJQsqaUBKTNV-1" parent="WIyWlLk6GJQsqaUBKTNV-0" />
        <mxCell id="WIWx7EF0oUpYT1g42AMl-2" value="&lt;font style=&quot;font-size: 20px;&quot;&gt;&lt;b&gt;Diagrama de Contêineres&lt;/b&gt;&lt;/font&gt;" style="text;html=1;align=center;verticalAlign=middle;whiteSpace=wrap;rounded=0;" vertex="1" parent="WIyWlLk6GJQsqaUBKTNV-1">
          <mxGeometry x="240" y="10" width="330" height="30" as="geometry" />
        </mxCell>
        <mxCell id="WIWx7EF0oUpYT1g42AMl-7" value="&lt;font style=&quot;color: rgb(18, 122, 29);&quot;&gt;Gestão de Finanças e Orçamentos&lt;br&gt;&lt;/font&gt;&lt;div style=&quot;text-align: left;&quot;&gt;&lt;span style=&quot;font-size: 10px; background-color: transparent;&quot;&gt;&lt;font style=&quot;color: rgb(18, 122, 29);&quot;&gt;[Software System]&lt;/font&gt;&lt;/span&gt;&lt;/div&gt;" style="rounded=0;whiteSpace=wrap;html=1;imageVerticalAlign=middle;labelPosition=left;verticalLabelPosition=middle;align=right;verticalAlign=middle;fontSize=16;fontStyle=1;fillColor=none;dashed=1;dashPattern=12 12;strokeColor=#999999;" vertex="1" parent="WIyWlLk6GJQsqaUBKTNV-1">
          <mxGeometry x="55" y="250" width="435" height="240" as="geometry" />
        </mxCell>
        <mxCell id="WIWx7EF0oUpYT1g42AMl-14" value="Keycloak" style="rhombus;whiteSpace=wrap;html=1;" vertex="1" parent="WIyWlLk6GJQsqaUBKTNV-1">
          <mxGeometry x="1080" y="610" width="80" height="80" as="geometry" />
        </mxCell>
        <mxCell id="WIWx7EF0oUpYT1g42AMl-18" value="MG API (Barramento)&amp;nbsp;&amp;nbsp;" style="rounded=0;whiteSpace=wrap;html=1;labelPosition=left;verticalLabelPosition=middle;align=right;verticalAlign=middle;fontSize=16;fontStyle=1" vertex="1" parent="WIyWlLk6GJQsqaUBKTNV-1">
          <mxGeometry x="190" y="750" width="620" height="160" as="geometry" />
        </mxCell>
        <mxCell id="WIWx7EF0oUpYT1g42AMl-25" style="edgeStyle=orthogonalEdgeStyle;rounded=0;orthogonalLoop=1;jettySize=auto;html=1;" edge="1" parent="WIyWlLk6GJQsqaUBKTNV-1" source="WIWx7EF0oUpYT1g42AMl-23" target="WIWx7EF0oUpYT1g42AMl-24">
          <mxGeometry relative="1" as="geometry" />
        </mxCell>
        <mxCell id="WIWx7EF0oUpYT1g42AMl-23" value="Possui token válido?" style="rhombus;whiteSpace=wrap;html=1;" vertex="1" parent="WIyWlLk6GJQsqaUBKTNV-1">
          <mxGeometry x="405" y="790" width="190" height="80" as="geometry" />
        </mxCell>
        <mxCell id="WIWx7EF0oUpYT1g42AMl-24" value="Transações bancárias" style="rounded=1;whiteSpace=wrap;html=1;" vertex="1" parent="WIyWlLk6GJQsqaUBKTNV-1">
          <mxGeometry x="880" y="795" width="140" height="60" as="geometry" />
        </mxCell>
        <mxCell id="WIWx7EF0oUpYT1g42AMl-26" value="&lt;span&gt;Banco de dados&amp;nbsp;&amp;nbsp;&lt;/span&gt;" style="rounded=0;whiteSpace=wrap;html=1;fontSize=16;fontStyle=1;labelPosition=left;verticalLabelPosition=middle;align=right;verticalAlign=middle;" vertex="1" parent="WIyWlLk6GJQsqaUBKTNV-1">
          <mxGeometry x="150" y="1190" width="810" height="150" as="geometry" />
        </mxCell>
        <mxCell id="WIWx7EF0oUpYT1g42AMl-27" value="BD Receita" style="shape=cylinder3;whiteSpace=wrap;html=1;boundedLbl=1;backgroundOutline=1;size=15;" vertex="1" parent="WIyWlLk6GJQsqaUBKTNV-1">
          <mxGeometry x="210" y="1210" width="60" height="80" as="geometry" />
        </mxCell>
        <mxCell id="WIWx7EF0oUpYT1g42AMl-28" value="Backend&amp;nbsp;&amp;nbsp;" style="rounded=0;whiteSpace=wrap;html=1;fontSize=16;fontStyle=1;labelPosition=left;verticalLabelPosition=middle;align=right;verticalAlign=middle;" vertex="1" parent="WIyWlLk6GJQsqaUBKTNV-1">
          <mxGeometry x="70" y="1010" width="860" height="100" as="geometry" />
        </mxCell>
        <mxCell id="WIWx7EF0oUpYT1g42AMl-29" value="Backend &lt;br&gt;Receita" style="rounded=1;whiteSpace=wrap;html=1;" vertex="1" parent="WIyWlLk6GJQsqaUBKTNV-1">
          <mxGeometry x="160" y="1030" width="120" height="60" as="geometry" />
        </mxCell>
        <mxCell id="WIWx7EF0oUpYT1g42AMl-30" value="Backend &lt;br&gt;Orçamento" style="rounded=1;whiteSpace=wrap;html=1;" vertex="1" parent="WIyWlLk6GJQsqaUBKTNV-1">
          <mxGeometry x="320" y="1030" width="120" height="60" as="geometry" />
        </mxCell>
        <mxCell id="WIWx7EF0oUpYT1g42AMl-32" value="Backend Adiantamento" style="rounded=1;whiteSpace=wrap;html=1;" vertex="1" parent="WIyWlLk6GJQsqaUBKTNV-1">
          <mxGeometry x="480" y="1030" width="120" height="60" as="geometry" />
        </mxCell>
        <mxCell id="WIWx7EF0oUpYT1g42AMl-33" value="Backend &lt;br&gt;Pagamento" style="rounded=1;whiteSpace=wrap;html=1;" vertex="1" parent="WIyWlLk6GJQsqaUBKTNV-1">
          <mxGeometry x="637" y="1030" width="120" height="60" as="geometry" />
        </mxCell>
        <mxCell id="WIWx7EF0oUpYT1g42AMl-34" value="Backend &lt;br&gt;Lançamento" style="rounded=1;whiteSpace=wrap;html=1;" vertex="1" parent="WIyWlLk6GJQsqaUBKTNV-1">
          <mxGeometry x="790" y="1030" width="120" height="60" as="geometry" />
        </mxCell>
        <mxCell id="WIWx7EF0oUpYT1g42AMl-40" style="edgeStyle=orthogonalEdgeStyle;rounded=0;orthogonalLoop=1;jettySize=auto;html=1;entryX=0.5;entryY=0;entryDx=0;entryDy=0;entryPerimeter=0;" edge="1" parent="WIyWlLk6GJQsqaUBKTNV-1" source="WIWx7EF0oUpYT1g42AMl-29" target="WIWx7EF0oUpYT1g42AMl-27">
          <mxGeometry relative="1" as="geometry" />
        </mxCell>
        <mxCell id="WIWx7EF0oUpYT1g42AMl-41" value="BD Orçamento" style="shape=cylinder3;whiteSpace=wrap;html=1;boundedLbl=1;backgroundOutline=1;size=15;" vertex="1" parent="WIyWlLk6GJQsqaUBKTNV-1">
          <mxGeometry x="340" y="1210" width="70" height="80" as="geometry" />
        </mxCell>
        <mxCell id="WIWx7EF0oUpYT1g42AMl-42" value="BD Adiantamento" style="shape=cylinder3;whiteSpace=wrap;html=1;boundedLbl=1;backgroundOutline=1;size=15;" vertex="1" parent="WIyWlLk6GJQsqaUBKTNV-1">
          <mxGeometry x="500" y="1210" width="80" height="80" as="geometry" />
        </mxCell>
        <mxCell id="WIWx7EF0oUpYT1g42AMl-43" value="BD Pagamento" style="shape=cylinder3;whiteSpace=wrap;html=1;boundedLbl=1;backgroundOutline=1;size=15;" vertex="1" parent="WIyWlLk6GJQsqaUBKTNV-1">
          <mxGeometry x="650" y="1210" width="70" height="80" as="geometry" />
        </mxCell>
        <mxCell id="WIWx7EF0oUpYT1g42AMl-44" value="BD Lançamento" style="shape=cylinder3;whiteSpace=wrap;html=1;boundedLbl=1;backgroundOutline=1;size=15;" vertex="1" parent="WIyWlLk6GJQsqaUBKTNV-1">
          <mxGeometry x="790" y="1210" width="70" height="80" as="geometry" />
        </mxCell>
        <mxCell id="WIWx7EF0oUpYT1g42AMl-45" style="edgeStyle=orthogonalEdgeStyle;rounded=0;orthogonalLoop=1;jettySize=auto;html=1;entryX=0.5;entryY=0;entryDx=0;entryDy=0;entryPerimeter=0;" edge="1" parent="WIyWlLk6GJQsqaUBKTNV-1" source="WIWx7EF0oUpYT1g42AMl-30" target="WIWx7EF0oUpYT1g42AMl-41">
          <mxGeometry relative="1" as="geometry" />
        </mxCell>
        <mxCell id="WIWx7EF0oUpYT1g42AMl-46" style="edgeStyle=orthogonalEdgeStyle;rounded=0;orthogonalLoop=1;jettySize=auto;html=1;entryX=0.5;entryY=0;entryDx=0;entryDy=0;entryPerimeter=0;" edge="1" parent="WIyWlLk6GJQsqaUBKTNV-1" source="WIWx7EF0oUpYT1g42AMl-32" target="WIWx7EF0oUpYT1g42AMl-42">
          <mxGeometry relative="1" as="geometry" />
        </mxCell>
        <mxCell id="WIWx7EF0oUpYT1g42AMl-47" style="edgeStyle=orthogonalEdgeStyle;rounded=0;orthogonalLoop=1;jettySize=auto;html=1;entryX=0.5;entryY=0;entryDx=0;entryDy=0;entryPerimeter=0;" edge="1" parent="WIyWlLk6GJQsqaUBKTNV-1" source="WIWx7EF0oUpYT1g42AMl-33" target="WIWx7EF0oUpYT1g42AMl-43">
          <mxGeometry relative="1" as="geometry" />
        </mxCell>
        <mxCell id="WIWx7EF0oUpYT1g42AMl-48" style="edgeStyle=orthogonalEdgeStyle;rounded=0;orthogonalLoop=1;jettySize=auto;html=1;entryX=0.5;entryY=0;entryDx=0;entryDy=0;entryPerimeter=0;" edge="1" parent="WIyWlLk6GJQsqaUBKTNV-1" source="WIWx7EF0oUpYT1g42AMl-34" target="WIWx7EF0oUpYT1g42AMl-44">
          <mxGeometry relative="1" as="geometry" />
        </mxCell>
        <mxCell id="WIWx7EF0oUpYT1g42AMl-49" value="" style="endArrow=classic;html=1;rounded=0;exitX=0.065;exitY=0.994;exitDx=0;exitDy=0;exitPerimeter=0;entryX=0.5;entryY=0;entryDx=0;entryDy=0;" edge="1" parent="WIyWlLk6GJQsqaUBKTNV-1" source="WIWx7EF0oUpYT1g42AMl-18" target="WIWx7EF0oUpYT1g42AMl-29">
          <mxGeometry width="50" height="50" relative="1" as="geometry">
            <mxPoint x="470" y="1090" as="sourcePoint" />
            <mxPoint x="520" y="1040" as="targetPoint" />
          </mxGeometry>
        </mxCell>
        <mxCell id="WIWx7EF0oUpYT1g42AMl-50" value="" style="endArrow=classic;html=1;rounded=0;exitX=0.314;exitY=1.016;exitDx=0;exitDy=0;entryX=0.5;entryY=0;entryDx=0;entryDy=0;exitPerimeter=0;" edge="1" parent="WIyWlLk6GJQsqaUBKTNV-1" source="WIWx7EF0oUpYT1g42AMl-18" target="WIWx7EF0oUpYT1g42AMl-30">
          <mxGeometry width="50" height="50" relative="1" as="geometry">
            <mxPoint x="470" y="1090" as="sourcePoint" />
            <mxPoint x="520" y="1040" as="targetPoint" />
          </mxGeometry>
        </mxCell>
        <mxCell id="WIWx7EF0oUpYT1g42AMl-51" value="" style="endArrow=classic;html=1;rounded=0;exitX=0.803;exitY=1.003;exitDx=0;exitDy=0;exitPerimeter=0;entryX=0.5;entryY=0;entryDx=0;entryDy=0;" edge="1" parent="WIyWlLk6GJQsqaUBKTNV-1" source="WIWx7EF0oUpYT1g42AMl-18" target="WIWx7EF0oUpYT1g42AMl-33">
          <mxGeometry width="50" height="50" relative="1" as="geometry">
            <mxPoint x="650" y="960" as="sourcePoint" />
            <mxPoint x="700" y="910" as="targetPoint" />
          </mxGeometry>
        </mxCell>
        <mxCell id="WIWx7EF0oUpYT1g42AMl-52" value="" style="endArrow=classic;html=1;rounded=0;exitX=0.555;exitY=1.009;exitDx=0;exitDy=0;exitPerimeter=0;" edge="1" parent="WIyWlLk6GJQsqaUBKTNV-1" source="WIWx7EF0oUpYT1g42AMl-18" target="WIWx7EF0oUpYT1g42AMl-32">
          <mxGeometry width="50" height="50" relative="1" as="geometry">
            <mxPoint x="545" y="970" as="sourcePoint" />
            <mxPoint x="595" y="920" as="targetPoint" />
          </mxGeometry>
        </mxCell>
        <mxCell id="WIWx7EF0oUpYT1g42AMl-53" value="" style="endArrow=classic;html=1;rounded=0;exitX=0.949;exitY=1.011;exitDx=0;exitDy=0;exitPerimeter=0;" edge="1" parent="WIyWlLk6GJQsqaUBKTNV-1" source="WIWx7EF0oUpYT1g42AMl-18" target="WIWx7EF0oUpYT1g42AMl-34">
          <mxGeometry width="50" height="50" relative="1" as="geometry">
            <mxPoint x="760" y="970" as="sourcePoint" />
            <mxPoint x="810" y="920" as="targetPoint" />
          </mxGeometry>
        </mxCell>
        <mxCell id="WIWx7EF0oUpYT1g42AMl-72" value="" style="edgeStyle=orthogonalEdgeStyle;rounded=1;orthogonalLoop=1;jettySize=auto;html=1;curved=0;strokeColor=light-dark(#808080, #ededed);dashed=1;dashPattern=12 12;" edge="1" parent="WIyWlLk6GJQsqaUBKTNV-1" source="WIWx7EF0oUpYT1g42AMl-60" target="WIWx7EF0oUpYT1g42AMl-61">
          <mxGeometry relative="1" as="geometry" />
        </mxCell>
        <mxCell id="WIWx7EF0oUpYT1g42AMl-73" value="&lt;font style=&quot;color: rgb(87, 87, 87);&quot;&gt;Envia requisições para&lt;/font&gt;&lt;div&gt;&lt;font style=&quot;font-size: 6px; color: rgb(87, 87, 87);&quot;&gt;[JSON/HTTPS]&lt;/font&gt;&lt;/div&gt;" style="edgeLabel;html=1;align=center;verticalAlign=middle;resizable=0;points=[];" vertex="1" connectable="0" parent="WIWx7EF0oUpYT1g42AMl-72">
          <mxGeometry x="-0.1403" relative="1" as="geometry">
            <mxPoint as="offset" />
          </mxGeometry>
        </mxCell>
        <mxCell id="WIWx7EF0oUpYT1g42AMl-60" value="&lt;div style=&quot;line-height: 70%;&quot;&gt;&lt;font&gt;&lt;b&gt;Aplicação Web - Frontend&lt;/b&gt;&lt;/font&gt;&lt;div&gt;&lt;font face=&quot;Verdana&quot; style=&quot;font-size: 6px; line-height: 70%;&quot;&gt;[Container: Javascript e Angular]&lt;/font&gt;&lt;/div&gt;&lt;div&gt;&lt;font face=&quot;Verdana&quot; style=&quot;font-size: 6px; line-height: 70%;&quot;&gt;&lt;br&gt;&lt;/font&gt;&lt;/div&gt;&lt;div&gt;&lt;font face=&quot;Verdana&quot; style=&quot;line-height: 70%; font-size: 8px;&quot;&gt;Disponibiliza para os usuários uma interface para acesso via navergador Web.&lt;/font&gt;&lt;/div&gt;&lt;/div&gt;" style="rounded=0;whiteSpace=wrap;html=1;fillColor=#60a917;fontColor=#ffffff;strokeColor=#2D7600;" vertex="1" parent="WIyWlLk6GJQsqaUBKTNV-1">
          <mxGeometry x="192.5" y="260" width="160" height="70" as="geometry" />
        </mxCell>
        <mxCell id="WIWx7EF0oUpYT1g42AMl-61" value="&lt;div style=&quot;line-height: 70%;&quot;&gt;&lt;b&gt;API - Backend&lt;/b&gt;&lt;br&gt;&lt;div&gt;&lt;font face=&quot;Verdana&quot; style=&quot;font-size: 6px; line-height: 70%;&quot;&gt;[Container: Javascript e Angular]&lt;/font&gt;&lt;/div&gt;&lt;div&gt;&lt;font face=&quot;Verdana&quot; style=&quot;font-size: 6px; line-height: 70%;&quot;&gt;&lt;br&gt;&lt;/font&gt;&lt;/div&gt;&lt;div&gt;&lt;font face=&quot;Verdana&quot; style=&quot;line-height: 70%; font-size: 8px;&quot;&gt;Disponibiliza para os usuários uma interface para acesso via navergador Web.&lt;/font&gt;&lt;/div&gt;&lt;/div&gt;" style="rounded=0;whiteSpace=wrap;html=1;fillColor=#60a917;fontColor=#ffffff;strokeColor=#2D7600;" vertex="1" parent="WIyWlLk6GJQsqaUBKTNV-1">
          <mxGeometry x="274" y="400" width="160" height="70" as="geometry" />
        </mxCell>
        <mxCell id="WIWx7EF0oUpYT1g42AMl-66" value="&lt;div style=&quot;line-height: 70%;&quot;&gt;SSC&lt;br&gt;&lt;div&gt;&lt;font style=&quot;font-size: 6px; line-height: 70%;&quot; face=&quot;Verdana&quot;&gt;[Software System]&lt;/font&gt;&lt;/div&gt;&lt;div&gt;&lt;font style=&quot;font-size: 6px; line-height: 70%;&quot; face=&quot;Verdana&quot;&gt;&lt;br&gt;&lt;/font&gt;&lt;/div&gt;&lt;div&gt;&lt;font style=&quot;line-height: 70%; font-size: 8px;&quot; face=&quot;Verdana&quot;&gt;Faz a gestão de acesso de usuários à aplicação Web.&lt;/font&gt;&lt;/div&gt;&lt;/div&gt;" style="rounded=0;whiteSpace=wrap;html=1;fillColor=light-dark(#787878, #515151);strokeColor=#36393d;fontColor=#FFFFFF;strokeWidth=0;" vertex="1" parent="WIyWlLk6GJQsqaUBKTNV-1">
          <mxGeometry x="520" y="260" width="160" height="70" as="geometry" />
        </mxCell>
        <mxCell id="WIWx7EF0oUpYT1g42AMl-67" value="" style="endArrow=block;html=1;rounded=0;exitX=0;exitY=0.5;exitDx=0;exitDy=0;entryX=0.5;entryY=0;entryDx=0;entryDy=0;dashed=1;dashPattern=8 8;strokeColor=#575757;endFill=1;" edge="1" parent="WIyWlLk6GJQsqaUBKTNV-1" source="WIWx7EF0oUpYT1g42AMl-54" target="WIWx7EF0oUpYT1g42AMl-60">
          <mxGeometry width="50" height="50" relative="1" as="geometry">
            <mxPoint x="180" y="190" as="sourcePoint" />
            <mxPoint x="120" y="240" as="targetPoint" />
          </mxGeometry>
        </mxCell>
        <mxCell id="WIWx7EF0oUpYT1g42AMl-71" value="&lt;font style=&quot;color: rgb(87, 87, 87);&quot;&gt;Visita www.gfo.gov.br&lt;/font&gt;&lt;div&gt;&lt;font style=&quot;color: rgb(87, 87, 87);&quot;&gt;[https]&lt;/font&gt;&lt;/div&gt;" style="edgeLabel;html=1;align=center;verticalAlign=middle;resizable=0;points=[];" vertex="1" connectable="0" parent="WIWx7EF0oUpYT1g42AMl-67">
          <mxGeometry x="-0.3699" relative="1" as="geometry">
            <mxPoint x="-12" y="23" as="offset" />
          </mxGeometry>
        </mxCell>
        <mxCell id="WIWx7EF0oUpYT1g42AMl-69" value="" style="group" vertex="1" connectable="0" parent="WIyWlLk6GJQsqaUBKTNV-1">
          <mxGeometry x="434" y="60" width="166" height="160" as="geometry" />
        </mxCell>
        <mxCell id="WIWx7EF0oUpYT1g42AMl-54" value="&lt;font style=&quot;line-height: 40%;&quot; face=&quot;Helvetica&quot;&gt;&lt;b&gt;&lt;font&gt;Usuário da Aplicação&lt;/font&gt;&lt;/b&gt;&lt;/font&gt;&lt;div style=&quot;line-height: 40%;&quot;&gt;&lt;font style=&quot;font-family: Verdana; font-size: 6px; line-height: 40%;&quot;&gt;[Person]&lt;/font&gt;&lt;/div&gt;&lt;div style=&quot;line-height: 40%;&quot;&gt;&lt;font face=&quot;Verdana&quot;&gt;&lt;span style=&quot;font-size: 6px;&quot;&gt;&lt;br&gt;&lt;/span&gt;&lt;/font&gt;&lt;div style=&quot;line-height: 60%;&quot;&gt;&lt;font style=&quot;font-size: 8px; line-height: 60%;&quot; face=&quot;Verdana&quot;&gt;Um usuário com acesso configurado no SSC&lt;/font&gt;&lt;/div&gt;&lt;/div&gt;" style="rounded=1;whiteSpace=wrap;html=1;fillColor=#008a00;strokeColor=none;fontColor=#ffffff;" vertex="1" parent="WIWx7EF0oUpYT1g42AMl-69">
          <mxGeometry y="70" width="166" height="90" as="geometry" />
        </mxCell>
        <mxCell id="WIWx7EF0oUpYT1g42AMl-55" value="" style="ellipse;whiteSpace=wrap;html=1;aspect=fixed;fillColor=#008a00;fontColor=#ffffff;strokeColor=light-dark(#127A1D,#EDEDED);" vertex="1" parent="WIWx7EF0oUpYT1g42AMl-69">
          <mxGeometry x="43" width="80" height="80" as="geometry" />
        </mxCell>
        <mxCell id="WIWx7EF0oUpYT1g42AMl-70" value="&lt;font style=&quot;line-height: 80%;&quot; face=&quot;Helvetica&quot;&gt;&lt;b&gt;Banco de Dados&lt;/b&gt;&lt;/font&gt;&lt;div style=&quot;line-height: 80%;&quot;&gt;&lt;font style=&quot;font-size: 6px; line-height: 80%;&quot; face=&quot;Verdana&quot;&gt;[Container: Oracle Dadabase Schema]&lt;/font&gt;&lt;/div&gt;&lt;div style=&quot;line-height: 40%;&quot;&gt;&lt;font style=&quot;font-size: 6px; line-height: 40%;&quot; face=&quot;Verdana&quot;&gt;&lt;br&gt;&lt;/font&gt;&lt;/div&gt;&lt;div style=&quot;line-height: 80%;&quot;&gt;&lt;font face=&quot;Verdana&quot; style=&quot;font-size: 8px; line-height: 80%;&quot;&gt;Armazena todas as informações necessárias para a aplicação como um todo.&amp;nbsp;&lt;/font&gt;&lt;/div&gt;" style="shape=cylinder3;whiteSpace=wrap;html=1;boundedLbl=1;backgroundOutline=1;size=15;fontColor=#ffffff;fillColor=#60a917;strokeColor=#2D7600;" vertex="1" parent="WIyWlLk6GJQsqaUBKTNV-1">
          <mxGeometry x="70" y="360" width="140" height="110" as="geometry" />
        </mxCell>
        <mxCell id="WIWx7EF0oUpYT1g42AMl-74" value="&lt;div style=&quot;line-height: 70%;&quot;&gt;&lt;div&gt;&lt;font style=&quot;line-height: 70%;&quot;&gt;MG- API&lt;/font&gt;&lt;/div&gt;&lt;div&gt;&lt;font style=&quot;font-size: 6px; line-height: 70%;&quot; face=&quot;Verdana&quot;&gt;[Software System]&lt;/font&gt;&lt;/div&gt;&lt;div&gt;&lt;font style=&quot;font-size: 6px; line-height: 70%;&quot; face=&quot;Verdana&quot;&gt;&lt;br&gt;&lt;/font&gt;&lt;/div&gt;&lt;div&gt;&lt;font style=&quot;line-height: 70%; font-size: 8px;&quot; face=&quot;Verdana&quot;&gt;Faz toda a gestão de acesso à API.&lt;/font&gt;&lt;/div&gt;&lt;/div&gt;" style="rounded=0;whiteSpace=wrap;html=1;fillColor=light-dark(#787878, #515151);strokeColor=#36393d;fontColor=#FFFFFF;strokeWidth=0;" vertex="1" parent="WIyWlLk6GJQsqaUBKTNV-1">
          <mxGeometry x="520" y="370" width="160" height="70" as="geometry" />
        </mxCell>
        <mxCell id="WIWx7EF0oUpYT1g42AMl-75" value="&lt;div style=&quot;line-height: 70%;&quot;&gt;&lt;div&gt;&lt;font style=&quot;line-height: 70%;&quot;&gt;Transações Bancárias&lt;/font&gt;&lt;/div&gt;&lt;div&gt;&lt;font style=&quot;font-size: 6px; line-height: 70%;&quot; face=&quot;Verdana&quot;&gt;[Software System]&lt;/font&gt;&lt;/div&gt;&lt;div&gt;&lt;font style=&quot;font-size: 6px; line-height: 70%;&quot; face=&quot;Verdana&quot;&gt;&lt;br&gt;&lt;/font&gt;&lt;/div&gt;&lt;div&gt;&lt;font style=&quot;line-height: 70%; font-size: 8px;&quot; face=&quot;Verdana&quot;&gt;Gestão das transações bancárias do TJ-MG.&lt;/font&gt;&lt;/div&gt;&lt;/div&gt;" style="rounded=0;whiteSpace=wrap;html=1;fillColor=light-dark(#787878, #515151);strokeColor=#36393d;fontColor=#FFFFFF;strokeWidth=0;" vertex="1" parent="WIyWlLk6GJQsqaUBKTNV-1">
          <mxGeometry x="520" y="470" width="160" height="70" as="geometry" />
        </mxCell>
      </root>
    </mxGraphModel>
  </diagram>
</mxfile>
